<svg width="266" height="196" viewBox="0 0 266 196" fill="none" xmlns="http://www.w3.org/2000/svg">
<path d="M143.994 178.096L33.676 112.92C30.164 110.946 27.153 107.711 30.576 105.589L141.286 41.8002C142.946 40.7702 145.467 40.0952 147.159 41.0802L262.945 108.27C266.457 110.308 267.087 115.987 263.588 118.044L158.532 177.994C156.327 179.273 153.826 179.955 151.277 179.973C148.727 179.991 146.217 179.344 143.994 178.096V178.096Z" fill="#5B36A0"/>
<path d="M143.994 175.088L33.676 109.91C30.164 107.935 27.153 104.7 30.576 102.578L141.286 38.79C142.946 37.761 145.467 37.086 147.159 38.07L262.945 105.26C266.457 107.299 267.087 112.977 263.588 115.035L158.532 174.984C156.327 176.263 153.826 176.945 151.277 176.963C148.727 176.981 146.217 176.335 143.994 175.087V175.088Z" fill="#6862E6"/>
<path style="mix-blend-mode:multiply" opacity="0.25" d="M153.09 89.094L131.322 101.512C131.322 101.512 164.855 121.969 171.712 124.85L184.249 106.843" fill="url(#paint0_linear)"/>
<path style="mix-blend-mode:multiply" opacity="0.25" d="M145.57 148.67L123.796 136.277L102.022 148.695C102.022 148.695 113.362 155.615 124.202 161.969C131.084 157.101 137.973 152.181 145.57 148.669V148.67Z" fill="url(#paint1_linear)"/>
<path style="mix-blend-mode:multiply" opacity="0.46" d="M98.658 72.1421L84.847 80.0201C84.847 80.0201 86.017 87.2421 92.875 90.1231L110.957 78.5471" fill="url(#paint2_linear)"/>
<path d="M105.418 80.02C110.019 80.02 113.748 77.3942 113.748 74.155C113.748 70.9159 110.019 68.29 105.418 68.29C100.817 68.29 97.088 70.9159 97.088 74.155C97.088 77.3942 100.817 80.02 105.418 80.02Z" fill="#68E1FD"/>
<path d="M105.412 73.2481C108.858 73.2481 111.652 72.1051 111.652 70.6951C111.652 69.2851 108.858 68.1421 105.412 68.1421C101.966 68.1421 99.172 69.2851 99.172 70.6951C99.172 72.1051 101.966 73.2481 105.412 73.2481Z" fill="#974C26"/>
<path d="M105.187 66.4381C105.187 65.2871 105.148 64.1351 105.058 62.9841C105.032 62.6841 105.004 62.3861 104.974 62.0901L104.91 61.5051C104.91 61.3321 104.82 60.8621 104.82 60.9071C104.781 60.6711 104.74 60.4371 104.698 60.2071C104.018 56.2991 102.499 52.5847 100.247 49.3191C99.3994 51.3355 98.9766 53.505 99.005 55.6921C99.005 56.3351 99.056 56.9781 99.108 57.5821V57.9621C99.3615 59.454 99.749 60.9199 100.266 62.3421C100.635 63.3787 101.084 64.3848 101.61 65.3511C102.178 66.439 102.794 67.501 103.456 68.5341C103.971 69.3441 104.46 70.0641 104.956 70.7531C105.11 69.3191 105.18 67.8781 105.186 66.4381H105.187ZM101.913 53.4921C101.946 53.3439 101.946 53.1903 101.913 53.0421C102.071 53.2051 102.228 53.3721 102.383 53.5441C102.228 53.5 102.067 53.4824 101.906 53.4921H101.913Z" fill="#999A1C"/>
<path d="M107.329 67.3251C107.972 66.3551 108.539 65.3951 109.085 64.3481C109.226 64.0821 109.364 63.8161 109.497 63.5501L109.76 63.0161L110.011 62.4631L110.288 61.8201C111.83 58.1618 112.56 54.2129 112.43 50.2451C110.622 51.4832 109.089 53.0812 107.927 54.9391C107.594 55.4751 107.282 56.0246 106.994 56.5861L106.866 56.8231L106.833 56.9261C106.711 57.2161 106.589 57.5061 106.473 57.8011C106.046 58.9217 105.701 60.0713 105.438 61.2411C105.187 62.3134 105.022 63.4038 104.942 64.5021C104.828 65.7228 104.773 66.9482 104.775 68.1741C104.775 69.1321 104.775 70.0071 104.833 70.8491C105.688 69.7111 106.55 68.5411 107.329 67.3251V67.3251ZM111.574 54.6631C111.675 54.5501 111.75 54.4161 111.793 54.2701C111.84 54.4931 111.881 54.7081 111.915 54.9141C111.815 54.8141 111.7 54.7291 111.575 54.6631H111.574Z" fill="#999A1C"/>
<path d="M107.284 70.1931C107.931 69.8721 108.574 69.5251 109.214 69.1521L109.696 68.8561L110.011 68.6561L110.32 68.4381L110.68 68.1741C112.691 66.6984 114.359 64.8051 115.569 62.6241C114.196 62.7122 112.856 63.0822 111.632 63.7111C111.278 63.8911 110.937 64.0911 110.596 64.2961L110.449 64.3861L110.397 64.4311L109.921 64.7851C109.328 65.2521 108.769 65.7621 108.249 66.3091C107.768 66.8071 107.327 67.3431 106.929 67.9101C106.483 68.5414 106.054 69.185 105.643 69.8401C105.335 70.3541 105.058 70.8361 104.813 71.3061C105.643 70.9591 106.473 70.5981 107.283 70.1931H107.284ZM113.664 64.7271C113.755 64.6988 113.839 64.6507 113.909 64.5861C113.862 64.7227 113.811 64.8578 113.755 64.9911C113.738 64.9014 113.708 64.8147 113.665 64.7341V64.7271H113.664ZM105.187 66.4381C105.187 65.2871 105.148 64.1351 105.058 62.9841C105.032 62.6841 105.004 62.3861 104.974 62.0901L104.91 61.5051C104.91 61.3321 104.82 60.8621 104.82 60.9071C104.781 60.6711 104.74 60.4371 104.698 60.2071C104.018 56.2991 102.499 52.5847 100.247 49.3191C99.3994 51.3355 98.9766 53.505 99.005 55.6921C99.005 56.3351 99.056 56.9781 99.108 57.5821V57.9621C99.3615 59.454 99.749 60.9199 100.266 62.3421C100.635 63.3787 101.084 64.3848 101.61 65.3511C102.178 66.439 102.794 67.501 103.456 68.5341C103.971 69.3441 104.46 70.0641 104.956 70.7531C105.11 69.3191 105.18 67.8781 105.186 66.4381H105.187ZM101.913 53.4921C101.946 53.3439 101.946 53.1903 101.913 53.0421C102.071 53.2051 102.228 53.3721 102.383 53.5441C102.228 53.5 102.067 53.4824 101.906 53.4921H101.913Z" fill="#999A1C"/>
<path d="M107.329 67.3251C107.972 66.3551 108.539 65.3951 109.085 64.3481C109.226 64.0821 109.364 63.8161 109.497 63.5501L109.76 63.0161L110.011 62.4631L110.288 61.8201C111.83 58.1618 112.56 54.2129 112.43 50.2451C110.622 51.4832 109.089 53.0812 107.927 54.9391C107.594 55.4751 107.282 56.0246 106.994 56.5861L106.866 56.8231L106.833 56.9261C106.711 57.2161 106.589 57.5061 106.473 57.8011C106.046 58.9217 105.701 60.0713 105.438 61.2411C105.187 62.3134 105.022 63.4038 104.942 64.5021C104.828 65.7228 104.773 66.9482 104.775 68.1741C104.775 69.1321 104.775 70.0071 104.833 70.8491C105.688 69.7111 106.55 68.5411 107.329 67.3251V67.3251ZM111.574 54.6631C111.675 54.5501 111.75 54.4161 111.793 54.2701C111.84 54.4931 111.881 54.7081 111.915 54.9141C111.815 54.8141 111.7 54.7291 111.575 54.6631H111.574Z" fill="#999A1C"/>
<path d="M107.284 70.193C107.931 69.872 108.574 69.525 109.214 69.152L109.696 68.856L110.011 68.656L110.32 68.438L110.68 68.174C112.691 66.6984 114.359 64.8051 115.569 62.624C114.196 62.7121 112.856 63.0822 111.632 63.711C111.278 63.891 110.937 64.091 110.596 64.296L110.449 64.386L110.397 64.431L109.921 64.785C109.328 65.252 108.769 65.762 108.249 66.309C107.768 66.807 107.327 67.343 106.929 67.91C106.483 68.5414 106.054 69.1849 105.643 69.84C105.335 70.354 105.058 70.836 104.813 71.306C105.643 70.959 106.473 70.598 107.283 70.193H107.284ZM113.664 64.727C113.755 64.6988 113.839 64.6506 113.909 64.586C113.862 64.7227 113.811 64.8578 113.755 64.991C113.738 64.9013 113.708 64.8146 113.665 64.734V64.727H113.664Z" fill="#999A1C"/>
<path d="M161.735 84.2451L149.687 90.0331C149.233 90.2513 148.848 90.589 148.571 91.0099C148.295 91.4307 148.138 91.919 148.118 92.4221C148.099 92.9252 148.216 93.4242 148.459 93.8655C148.701 94.3069 149.059 94.6739 149.494 94.9271L178.048 111.583C178.665 111.944 179.398 112.052 180.093 111.885C180.788 111.719 181.392 111.29 181.779 110.689L188.719 99.8981" fill="#A1482D"/>
<path d="M227.264 56.3281L131.194 0.984108C130.535 0.605246 129.788 0.406304 129.028 0.40723C128.268 0.408155 127.521 0.608915 126.863 0.989381C126.205 1.36985 125.658 1.91664 125.278 2.57495C124.898 3.23326 124.698 3.97993 124.697 4.74011V62.3151C124.697 63.6021 125.383 64.7911 126.497 65.4351L228.917 124.541C229.27 124.745 229.671 124.853 230.079 124.853C230.487 124.853 230.888 124.746 231.242 124.542C231.595 124.338 231.888 124.044 232.092 123.691C232.296 123.337 232.403 122.936 232.403 122.528V65.1901C232.401 63.3914 231.925 61.6249 231.023 60.0689C230.12 58.513 228.824 57.2226 227.263 56.3281H227.264Z" fill="#F47B56"/>
<path d="M131.2 5.33809L224.369 58.9261C225.364 59.4987 226.19 60.3234 226.765 61.317C227.34 62.3107 227.643 63.4382 227.643 64.5861V107.743C227.642 108.156 227.533 108.562 227.327 108.919C227.12 109.277 226.823 109.574 226.466 109.781C226.108 109.988 225.703 110.098 225.29 110.099C224.877 110.1 224.471 109.993 224.112 109.788L129.096 55.3061C128.74 55.1022 128.445 54.808 128.24 54.4533C128.034 54.0986 127.926 53.696 127.926 53.2861V7.23509C127.926 6.85177 128.026 6.47514 128.218 6.14299C128.409 5.81083 128.684 5.53483 129.016 5.34266C129.348 5.15048 129.724 5.0489 130.107 5.0481C130.491 5.0473 130.868 5.1473 131.2 5.33809V5.33809Z" fill="white"/>
<path d="M170.402 86.7403C171.501 86.5287 172.195 85.3394 171.954 84.0839C171.712 82.8285 170.625 81.9822 169.526 82.1938C168.428 82.4054 167.733 83.5947 167.975 84.8501C168.216 86.1056 169.303 86.9518 170.402 86.7403Z" fill="#AB643C"/>
<path opacity="0.32" d="M156.242 63.891L199.539 89.898L220.928 77.467L182.712 55.229" fill="url(#paint3_linear)"/>
<path d="M209.748 58.7141L162.938 30.1801C162.688 30.0353 162.403 29.9603 162.113 29.9627C161.824 29.9651 161.541 30.045 161.293 30.194C161.044 30.343 160.841 30.5557 160.703 30.81C160.565 31.0643 160.497 31.3509 160.507 31.6401V47.8971C160.505 48.1914 160.579 48.4811 160.722 48.7382C160.866 48.9953 161.073 49.2109 161.324 49.3641L208.127 77.2941C208.373 77.4337 208.652 77.5063 208.935 77.5044C209.217 77.5026 209.495 77.4265 209.739 77.2837C209.983 77.1409 210.186 76.9365 210.326 76.6909C210.467 76.4452 210.54 76.167 210.539 75.8841L210.783 60.7271C210.801 60.3304 210.715 59.9359 210.534 59.5828C210.352 59.2297 210.081 58.9302 209.748 58.7141V58.7141Z" fill="#E2AC00"/>
<path d="M198.549 67.0802C200.228 69.4282 203.18 70.0842 205.136 68.5532C207.091 67.0232 207.316 63.8782 205.637 61.5372C203.958 59.1972 201.006 58.5342 199.05 60.0652C197.095 61.5952 196.87 64.7342 198.549 67.0812V67.0802Z" fill="white"/>
<path d="M193.956 55.8142L174.864 44.3222C174.7 44.2472 174.515 44.2356 174.343 44.2896C174.171 44.3437 174.026 44.4595 173.934 44.6147C173.843 44.7699 173.813 44.9534 173.849 45.1297C173.885 45.3061 173.986 45.4627 174.131 45.5692L193.223 57.0612C193.387 57.1362 193.572 57.1478 193.744 57.0937C193.916 57.0397 194.061 56.9239 194.153 56.7687C194.244 56.6135 194.274 56.4299 194.238 56.2536C194.202 56.0773 194.101 55.9207 193.956 55.8142V55.8142ZM193.171 60.4832L166.856 44.6432C166.695 44.5865 166.519 44.5885 166.359 44.6488C166.199 44.709 166.065 44.8237 165.981 44.9727C165.898 45.1216 165.869 45.2954 165.901 45.4633C165.932 45.6313 166.022 45.7828 166.154 45.8912L192.438 61.7372C192.602 61.8134 192.788 61.8258 192.961 61.772C193.134 61.7182 193.28 61.602 193.371 61.4462C193.463 61.2903 193.493 61.1059 193.456 60.9289C193.419 60.752 193.317 60.5952 193.171 60.4892V60.4832Z" fill="#F2F2F2"/>
<path d="M200.408 61.8652L153.624 33.3382C153.373 33.1931 153.089 33.1179 152.799 33.1202C152.51 33.1225 152.226 33.2023 151.978 33.3513C151.729 33.5003 151.526 33.7131 151.388 33.9676C151.249 34.222 151.182 34.5088 151.192 34.7982V51.0482C151.185 51.6482 151.492 52.2072 152.002 52.5212L198.806 80.4512C199.055 80.5939 199.336 80.668 199.623 80.6657C199.91 80.6635 200.19 80.5851 200.437 80.4385C200.683 80.2919 200.886 80.0825 201.024 79.8316C201.163 79.5808 201.232 79.2976 201.225 79.0112L201.469 63.8522C201.48 63.4574 201.388 63.0666 201.202 62.7182C201.016 62.3698 200.742 62.0758 200.408 61.8652Z" fill="#F47B56"/>
<path d="M189.209 70.2321C190.888 72.5791 193.84 73.2351 195.796 71.7051C197.751 70.1751 197.976 67.0291 196.297 64.6881C194.618 62.3481 191.666 61.6851 189.71 63.2161C187.755 64.7461 187.53 67.8851 189.209 70.2321Z" fill="white"/>
<path d="M184.616 58.9651L165.51 47.4731C165.346 47.3968 165.16 47.3844 164.987 47.4382C164.814 47.492 164.668 47.6082 164.577 47.7641C164.485 47.92 164.455 48.1044 164.492 48.2813C164.529 48.4582 164.631 48.615 164.777 48.7211L183.869 60.2131C184.033 60.2893 184.219 60.3017 184.392 60.2479C184.565 60.1941 184.711 60.0779 184.802 59.9221C184.894 59.7662 184.924 59.5818 184.887 59.4048C184.85 59.2279 184.748 59.0711 184.602 58.9651H184.615H184.616ZM183.825 63.6661L157.515 47.8011C157.351 47.7248 157.165 47.7124 156.992 47.7662C156.819 47.82 156.673 47.9362 156.582 48.0921C156.49 48.248 156.46 48.4324 156.497 48.6093C156.534 48.7862 156.636 48.943 156.782 49.0491L183.098 64.8881C183.262 64.9643 183.448 64.9767 183.621 64.9229C183.794 64.8691 183.94 64.7529 184.031 64.5971C184.123 64.4412 184.153 64.2568 184.116 64.0798C184.079 63.9029 183.977 63.7461 183.831 63.6401L183.825 63.6661Z" fill="#F2F2F2"/>
<path d="M188.668 63.7822L141.872 35.2542C141.621 35.1091 141.337 35.0339 141.047 35.0362C140.757 35.0385 140.474 35.1183 140.226 35.2673C139.977 35.4164 139.774 35.6291 139.635 35.8836C139.497 36.138 139.43 36.4248 139.44 36.7142V52.9652C139.438 53.2593 139.512 53.5488 139.655 53.8057C139.799 54.0626 140.006 54.2781 140.257 54.4312L187.06 82.3612C187.308 82.5039 187.59 82.578 187.877 82.5758C188.164 82.5735 188.444 82.4951 188.691 82.3485C188.937 82.202 189.14 81.9925 189.278 81.7417C189.417 81.4908 189.486 81.2076 189.479 80.9212L189.723 65.7622C189.744 64.9622 189.343 64.2112 188.668 63.7822V63.7822Z" fill="#68E1FD"/>
<path d="M188.668 63.7822L141.872 35.2542C141.621 35.1091 141.337 35.0339 141.047 35.0362C140.757 35.0385 140.474 35.1183 140.226 35.2673C139.977 35.4164 139.774 35.6291 139.635 35.8836C139.497 36.138 139.43 36.4248 139.44 36.7142V52.9652C139.438 53.2593 139.512 53.5488 139.655 53.8057C139.799 54.0626 140.006 54.2781 140.257 54.4312L187.06 82.3612C187.308 82.5039 187.59 82.578 187.877 82.5758C188.164 82.5735 188.444 82.4951 188.691 82.3485C188.937 82.202 189.14 81.9925 189.278 81.7417C189.417 81.4908 189.486 81.2076 189.479 80.9212L189.723 65.7622C189.744 64.9622 189.343 64.2112 188.668 63.7822V63.7822Z" fill="#68E1FD"/>
<path d="M177.463 72.1481C179.142 74.4961 182.094 75.1521 184.05 73.6211C186.005 72.0911 186.23 68.9461 184.551 66.6051C182.873 64.2651 179.92 63.6021 177.965 65.1321C176.009 66.6621 175.803 69.8021 177.463 72.1481V72.1481Z" fill="white"/>
<path d="M172.87 60.8812L153.772 49.3902C153.608 49.313 153.421 49.2999 153.248 49.3535C153.075 49.407 152.928 49.5233 152.836 49.6795C152.744 49.8357 152.714 50.0206 152.751 50.198C152.789 50.3753 152.891 50.5323 153.038 50.6382L172.13 62.1302C172.294 62.2073 172.481 62.2204 172.654 62.1669C172.827 62.1134 172.974 61.9971 173.066 61.8409C173.158 61.6846 173.188 61.4997 173.151 61.3224C173.113 61.145 173.011 60.988 172.864 60.8822H172.87V60.8812ZM172.079 65.5572L145.763 49.7172C145.599 49.6409 145.413 49.6285 145.24 49.6823C145.068 49.7361 144.921 49.8523 144.83 50.0082C144.738 50.1641 144.708 50.3485 144.745 50.5254C144.782 50.7023 144.884 50.8591 145.03 50.9652L171.345 66.8052C171.509 66.8823 171.696 66.8954 171.869 66.8419C172.042 66.7884 172.189 66.6721 172.281 66.5159C172.373 66.3596 172.403 66.1747 172.366 65.9974C172.328 65.82 172.226 65.663 172.079 65.5572Z" fill="#F2F2F2"/>
<path d="M127.25 62.187C124.226 64.789 121.939 68.1399 120.618 71.904C118.29 78.334 124.111 88.843 124.111 88.843L133.168 81.673" fill="#FF8F6F"/>
<path d="M126.273 147.21L123.815 145.853L124.459 142.342C124.459 142.342 128.119 142.689 128.44 143.988" fill="#003B94"/>
<path d="M127.173 147.158C127.726 146.818 128.305 146.515 128.878 146.213C130.299 145.435 132.351 144.631 133.226 143.171C133.405 142.876 133.49 142.533 133.469 142.189C133.449 141.844 133.323 141.514 133.11 141.242C131.824 139.686 129.006 142.245 127.566 140.522C127.283 140.181 127.147 134.772 127.147 134.772L121.667 136.252C121.667 136.252 120.741 147.12 120.844 147.789C120.946 148.457 122.831 149.075 122.831 149.075C123.393 148.956 123.929 148.738 124.414 148.432C124.986 148.014 124.465 142.914 125.198 143.628C125.932 144.342 126.253 147.133 126.253 147.133C126.558 147.179 126.867 147.187 127.173 147.158V147.158Z" fill="#F47B56"/>
<path d="M136.738 152.464L134.281 151.126L134.924 147.615C134.924 147.615 138.584 147.962 138.906 149.261" fill="#003B94"/>
<path d="M137.665 152.412C138.218 152.072 138.797 151.769 139.369 151.467C140.791 150.689 142.843 149.885 143.718 148.425C143.897 148.13 143.982 147.787 143.961 147.443C143.941 147.098 143.815 146.768 143.602 146.496C142.315 144.94 139.498 147.499 138.057 145.776C137.774 145.435 137.639 140.026 137.639 140.026L132.159 141.506C132.159 141.506 131.226 152.412 131.329 153.056C131.431 153.699 133.316 154.342 133.316 154.342C133.878 154.223 134.413 154.005 134.899 153.699C135.471 153.281 134.95 148.181 135.683 148.895C136.417 149.609 136.738 152.4 136.738 152.4C137.045 152.442 137.357 152.446 137.665 152.412Z" fill="#F47B56"/>
<path d="M118.882 117.133L117.267 138.721C117.267 138.721 119.84 142.271 128.467 140.297L128.55 125.744L118.882 117.133ZM128.846 121.41C128.659 123.268 128.846 143.77 128.846 143.77C128.846 143.77 131.232 148.232 141.621 143.77L141.473 126.348" fill="#3E2928"/>
<path d="M118.078 124.264C118.785 124.754 119.03 122.239 119.769 122.67C122.46 124.233 125.317 125.492 128.286 126.425H128.35C128.421 126.391 128.498 126.371 128.576 126.367C128.655 126.363 128.734 126.375 128.808 126.402C128.882 126.429 128.949 126.471 129.007 126.524C129.064 126.578 129.11 126.643 129.142 126.715C130.976 127.262 132.842 127.691 134.732 128.001C137.156 128.387 139.163 126.592 141.652 126.471C141.652 116.94 141.698 89.814 137.639 84.026L125.629 79.988C125.571 80.978 119.801 87.666 119.943 95.821C120.103 105.011 118.907 113.679 118.701 116.554C118.669 117.043 118.103 123.744 118.078 124.264V124.264Z" fill="#3E2928"/>
<path d="M138.745 73.068L137.639 84.001C137.639 84.001 128.679 84.361 124.819 81.698V72.425" fill="#FF8F6F"/>
<path d="M150.137 65.872L149.224 67.119C149.711 66.1043 150.14 65.063 150.51 64C150.768 63.274 149.603 62.984 149.346 63.711L149.211 64.084C149.323 63.698 149.428 63.31 149.526 62.92C149.547 62.8428 149.553 62.7621 149.543 62.6826C149.533 62.6032 149.506 62.5266 149.466 62.4574C149.426 62.3882 149.372 62.3277 149.308 62.2797C149.244 62.2316 149.171 62.1968 149.093 62.1775C149.015 62.1581 148.934 62.1545 148.855 62.1669C148.776 62.1793 148.7 62.2074 148.632 62.2495C148.564 62.2917 148.505 62.3471 148.458 62.4125C148.412 62.4778 148.379 62.5518 148.362 62.63C148.11 63.6396 147.807 64.6358 147.455 65.615C147.652 64.7458 147.794 63.8651 147.88 62.978C147.957 62.213 146.754 62.245 146.683 62.978C146.583 63.988 146.403 64.988 146.143 65.968C146.143 65.6228 146.11 65.2783 146.046 64.939C146.037 64.8537 146.01 64.7713 145.967 64.6971C145.924 64.623 145.866 64.5589 145.796 64.509C145.763 64.374 145.725 64.2406 145.68 64.109C145.634 63.9743 145.543 63.8599 145.421 63.7859C145.3 63.7119 145.156 63.6832 145.015 63.7047C144.875 63.7262 144.746 63.7965 144.652 63.9034C144.558 64.0103 144.505 64.1468 144.502 64.289L144.425 68.791C144.207 69.258 143.924 69.691 143.583 70.078C144.161 70.478 144.72 70.908 145.255 71.364C145.733 71.767 146.188 72.197 146.619 72.65C147.005 72.17 147.376 71.681 147.732 71.184C147.776 71.1464 147.815 71.103 147.847 71.055C148.919 69.4698 150.026 67.9087 151.167 66.373C151.643 65.846 150.594 65.261 150.137 65.872V65.872Z" fill="#FFB5A9"/>
<path d="M133.059 63.1001C133.059 63.1001 137.292 64.2381 139.009 66.9591C140.085 68.8417 141.032 70.7944 141.846 72.8041L144.972 67.9491C144.972 67.9491 148.767 69.1131 150.272 70.9781C150.272 70.9781 145.77 80.8181 141.846 81.6601C137.922 82.5021 133.754 75.8851 133.754 75.8851C133.754 75.8851 132.892 78.6501 133.059 75.6981" fill="#FF8F6F"/>
<path d="M135.748 73.615C134.517 72.6144 133.589 71.292 133.065 69.795C132.557 68.065 133.194 66.547 133.785 64.939C134.426 63.3454 134.8 61.6572 134.892 59.942C134.944 58.258 134.751 56.572 134.635 54.894C134.619 54.8223 134.619 54.7478 134.635 54.676C134.069 52.778 132.911 51.171 130.627 50.978C124.716 50.476 124.381 57.023 124.427 59.685C124.471 62.348 124.755 64.148 122.793 65.261C120.831 66.373 119.415 69.293 121.287 71.653C123.159 74.013 121.48 73.152 120.232 75.248C118.985 77.345 119.306 79.962 121.866 80.908C124.426 81.853 136.326 80.078 137.42 78.978C137.808 78.535 138.009 77.9584 137.98 77.37C137.713 75.8902 136.92 74.5568 135.748 73.615Z" fill="#007F68"/>
<path d="M141.563 19.6201C142.565 21.0618 143.144 22.7548 143.235 24.5081C143.347 25.3109 143.152 26.1263 142.688 26.7911C142.491 27.008 142.227 27.153 141.938 27.2031C141.649 27.2533 141.352 27.2058 141.093 27.0681C140.768 26.9383 140.474 26.7405 140.231 26.4881C140.013 26.2836 139.827 26.0477 139.678 25.7881L139.524 25.4861C139.482 25.5651 139.43 25.6381 139.369 25.7041C139.216 25.8241 139.034 25.9011 138.842 25.9291C138.52 25.9891 138.188 25.9491 137.89 25.8141C137.179 25.5065 136.587 24.9758 136.204 24.3021C135.743 23.5708 135.485 22.7294 135.458 21.8651C135.363 21.1651 135.582 20.4591 136.056 19.9351C136.26 19.7385 136.52 19.6096 136.8 19.5659C137.079 19.5223 137.366 19.566 137.62 19.6911C137.878 19.7941 138.115 19.9421 138.32 20.1291C138.496 20.2781 138.652 20.4491 138.784 20.6371L138.9 20.8431V20.2701L140.186 20.7721L140.315 24.3861C140.324 24.6451 140.404 24.8961 140.546 25.1131C140.667 25.3221 140.852 25.4861 141.074 25.5831C141.696 25.8271 141.983 25.2911 141.936 23.9741C141.871 22.6706 141.441 21.4117 140.694 20.3411C140.023 19.2519 139.026 18.4017 137.844 17.9111C137.415 17.6933 136.931 17.6093 136.454 17.6699C135.977 17.7306 135.53 17.933 135.169 18.2511C134.785 18.637 134.492 19.1044 134.313 19.6187C134.133 20.1329 134.072 20.6809 134.133 21.2221C134.207 22.6009 134.651 23.9342 135.42 25.0811C136.032 26.2138 136.996 27.1166 138.166 27.6531C138.574 27.8231 139.011 27.9081 139.453 27.9031C139.74 27.9231 140.028 27.8701 140.289 27.7491L140.546 27.6081L141.325 29.0551L141.196 29.1451C141.074 29.2131 140.947 29.2741 140.816 29.3251C140.611 29.4141 140.395 29.4751 140.173 29.5051C139.889 29.5432 139.602 29.5432 139.318 29.5051C138.945 29.4606 138.58 29.3674 138.231 29.2281C137.241 28.8024 136.361 28.1559 135.658 27.3381C134.826 26.418 134.152 25.366 133.664 24.2251C133.176 23.1359 132.896 21.9646 132.84 20.7721C132.771 19.7697 132.975 18.7673 133.432 17.8721C133.811 17.1208 134.466 16.5448 135.259 16.2641C136.09 15.9903 136.994 16.036 137.793 16.3921C139.354 17.0517 140.671 18.1801 141.563 19.6211V19.6201ZM138.726 24.1931C138.937 23.9231 139.032 23.5811 138.99 23.2411C138.98 22.8219 138.862 22.4122 138.649 22.0511C138.474 21.736 138.201 21.4875 137.87 21.3441C137.744 21.2791 137.6 21.2541 137.459 21.2725C137.318 21.2909 137.186 21.3518 137.08 21.4471C136.969 21.5733 136.886 21.7219 136.837 21.8828C136.788 22.0438 136.774 22.2134 136.796 22.3801C136.811 22.8041 136.937 23.2161 137.163 23.5761C137.348 23.9021 137.635 24.1601 137.98 24.3091C138.227 24.4361 138.528 24.3891 138.726 24.1931V24.1931ZM217.512 89.2551C218.515 90.6958 219.095 92.3888 219.184 94.1421C219.296 94.9448 219.101 95.7602 218.638 96.4251C218.44 96.6413 218.176 96.7858 217.887 96.8359C217.599 96.8861 217.301 96.839 217.042 96.7021C216.718 96.5704 216.424 96.3729 216.18 96.1221C215.963 95.9166 215.777 95.6808 215.627 95.4221L215.473 95.1201C215.429 95.1981 215.377 95.2712 215.318 95.3381C215.166 95.4581 214.984 95.5371 214.791 95.5631C214.472 95.6271 214.141 95.5891 213.845 95.4541C213.133 95.1447 212.542 94.6118 212.16 93.9361C211.694 93.2041 211.434 92.3603 211.407 91.4931C211.308 90.7931 211.527 90.0851 212.006 89.5631C212.209 89.3673 212.467 89.2388 212.746 89.1952C213.024 89.1515 213.309 89.1948 213.562 89.3191C213.82 89.4211 214.058 89.5691 214.263 89.7561C214.439 89.9081 214.594 90.0811 214.727 90.2711L214.849 90.4761V89.9041L216.135 90.3991L216.264 94.0131C216.275 94.2721 216.355 94.5231 216.495 94.7401C216.616 94.9501 216.801 95.1141 217.023 95.2101C217.666 95.4541 217.93 94.9201 217.891 93.6021C217.826 92.2966 217.396 91.0356 216.65 89.9621C215.979 88.8768 214.985 88.0291 213.807 87.5381C213.379 87.3201 212.895 87.2355 212.418 87.295C211.941 87.3545 211.493 87.5555 211.131 87.8721C210.749 88.2625 210.459 88.7341 210.284 89.2517C210.11 89.7694 210.054 90.3199 210.121 90.8621C210.193 92.2411 210.638 93.5747 211.407 94.7211C212.043 95.8272 213.018 96.6997 214.187 97.2101C214.594 97.3801 215.031 97.4671 215.473 97.4671C215.76 97.4841 216.047 97.4311 216.309 97.3121L216.566 97.1711L217.345 98.6181L217.215 98.7081C217.094 98.7771 216.967 98.8371 216.836 98.8881C216.63 98.9733 216.414 99.0337 216.193 99.0681C215.907 99.106 215.617 99.106 215.331 99.0681C214.96 99.0212 214.597 98.926 214.251 98.7851C213.261 98.3611 212.381 97.7167 211.678 96.9011C210.845 95.9787 210.171 94.9243 209.683 93.7811C209.195 92.6923 208.915 91.5213 208.86 90.3291C208.79 89.3286 208.995 88.3279 209.452 87.4351C209.832 86.6828 210.486 86.1048 211.279 85.8201C212.113 85.5496 213.017 85.5959 213.819 85.9501C215.362 86.6439 216.652 87.7984 217.512 89.2551V89.2551ZM214.675 93.8271C214.888 93.5581 214.985 93.2161 214.945 92.8751C214.934 92.4552 214.814 92.0453 214.598 91.6851C214.427 91.37 214.155 91.1211 213.826 90.9781C213.7 90.9121 213.557 90.886 213.415 90.9033C213.274 90.9206 213.141 90.9806 213.035 91.0751C212.922 91.2002 212.838 91.3484 212.788 91.5093C212.738 91.6702 212.723 91.8401 212.745 92.0071C212.76 92.4291 212.887 92.8401 213.112 93.1971C213.297 93.5251 213.584 93.7851 213.929 93.9371C214.049 93.9997 214.186 94.0227 214.32 94.003C214.454 93.9832 214.578 93.9217 214.675 93.8271" fill="#F47B56"/>
<path style="mix-blend-mode:multiply" opacity="0.25" d="M89.324 116.676L67.55 104.29L45.782 116.702C45.782 116.702 57.895 124.264 68.733 130.618C75.616 125.756 81.733 120.194 89.324 116.676V116.676Z" fill="url(#paint4_linear)"/>
<g filter="url(#filter0_d)">
<path d="M50 81.8781V108.813L70.984 120.83L94.678 106.817V79.8831" fill="black"/>
</g>
<path d="M50 81.8781V108.813L70.984 120.83L94.678 106.817V79.8831" fill="#FF9271"/>
<path d="M70.984 93.8961V120.831L94.678 106.818V79.8831L70.984 93.8961Z" fill="#DF5C34"/>
<path d="M50 81.878L74.347 68L94.677 79.883L70.984 93.896L50 81.878Z" fill="#F47B56"/>
<path d="M71.541 74.182C74.0098 74.0154 76.4748 74.5584 78.645 75.747C79.888 76.478 80.567 77.241 80.663 78.037C80.759 78.832 80.349 79.524 79.382 80.107C78.9232 80.3905 78.4177 80.5903 77.889 80.697C77.455 80.8 77.009 80.846 76.563 80.832L76.076 80.794C76.122 80.903 76.152 81.017 76.166 81.134C76.1509 81.4108 76.0625 81.6786 75.91 81.91C75.656 82.34 75.294 82.696 74.86 82.942C73.8477 83.5436 72.6874 83.8501 71.51 83.827C70.2917 83.8601 69.0878 83.5562 68.031 82.949C67.032 82.359 66.52 81.666 66.481 80.871C66.4849 80.45 66.607 80.0386 66.8335 79.6837C67.0601 79.3288 67.3818 79.0448 67.762 78.864C68.1271 78.6362 68.5246 78.4653 68.941 78.357C69.2728 78.2612 69.6143 78.2032 69.959 78.184H70.312L69.671 77.799L71.471 76.677L75.641 79.133C75.9599 79.3048 76.3164 79.3947 76.6785 79.3947C77.0407 79.3947 77.3972 79.3048 77.716 79.133C78.6 78.582 78.284 77.857 76.768 76.959C75.1569 76.0717 73.3254 75.6643 71.49 75.785C69.5448 75.8089 67.6419 76.356 65.981 77.369C64.47 78.314 63.721 79.441 63.733 80.749C63.733 82.032 64.533 83.173 66.09 84.09C67.79 85.04 69.719 85.5 71.663 85.418C73.5993 85.4499 75.5064 84.9438 77.172 83.956C77.7482 83.6142 78.265 83.1808 78.702 82.673C78.995 82.363 79.214 81.99 79.343 81.583L79.433 81.179L81.809 81.313C81.813 81.386 81.813 81.459 81.809 81.532C81.766 81.728 81.708 81.921 81.636 82.109C81.533 82.409 81.396 82.699 81.226 82.968C80.982 83.332 80.699 83.668 80.381 83.968C79.961 84.373 79.501 84.73 79.004 85.033C77.574 85.8915 75.99 86.4622 74.341 86.713C72.544 87.0269 70.709 87.0593 68.902 86.809C67.2594 86.6157 65.6719 86.0969 64.232 85.283C63.07 84.6674 62.1395 83.6906 61.581 82.5C61.3527 81.9806 61.2349 81.4194 61.2349 80.852C61.2349 80.2846 61.3527 79.7235 61.581 79.204C62.1344 77.9913 63.0557 76.9837 64.214 76.324C66.4209 74.9676 68.9511 74.228 71.541 74.182V74.182ZM73.873 80.813C73.8311 80.5939 73.7363 80.3882 73.5969 80.214C73.4574 80.0397 73.2776 79.9021 73.073 79.813C72.5681 79.5157 71.993 79.3586 71.407 79.358C70.8628 79.3374 70.3243 79.4753 69.857 79.755C69.473 79.942 69.226 80.328 69.217 80.755C69.275 81.2 69.562 81.582 69.972 81.762C70.4881 82.0569 71.0748 82.2056 71.669 82.192C72.2403 82.2064 72.8041 82.0599 73.296 81.769C73.669 81.599 73.906 81.223 73.899 80.813" fill="#3E2928"/>
<defs>
<filter id="filter0_d" x="0" y="54.8831" width="144.678" height="140.947" filterUnits="userSpaceOnUse" color-interpolation-filters="sRGB">
<feFlood flood-opacity="0" result="BackgroundImageFix"/>
<feColorMatrix in="SourceAlpha" type="matrix" values="0 0 0 0 0 0 0 0 0 0 0 0 0 0 0 0 0 0 127 0"/>
<feOffset dy="25"/>
<feGaussianBlur stdDeviation="25"/>
<feColorMatrix type="matrix" values="0 0 0 0 0.209139 0 0 0 0 0.0691446 0 0 0 0 0.478091 0 0 0 0.497159 0"/>
<feBlend mode="normal" in2="BackgroundImageFix" result="effect1_dropShadow"/>
<feBlend mode="normal" in="SourceGraphic" in2="effect1_dropShadow" result="shape"/>
</filter>
<linearGradient id="paint0_linear" x1="163.703" y1="102.273" x2="156.708" y2="111.751" gradientUnits="userSpaceOnUse">
<stop stop-color="#78B46A"/>
<stop offset="0.03" stop-color="#7F3500"/>
<stop offset="1" stop-color="white"/>
</linearGradient>
<linearGradient id="paint1_linear" x1="137.812" y1="143.62" x2="123.131" y2="159.714" gradientUnits="userSpaceOnUse">
<stop stop-color="#78B46A"/>
<stop offset="0.03" stop-color="#7F3500"/>
<stop offset="1" stop-color="white"/>
</linearGradient>
<linearGradient id="paint2_linear" x1="105.907" y1="76.088" x2="94.9046" y2="88.1518" gradientUnits="userSpaceOnUse">
<stop stop-color="#78B46A"/>
<stop offset="0.03" stop-color="#7F3500"/>
<stop offset="1" stop-color="white"/>
</linearGradient>
<linearGradient id="paint3_linear" x1="208.648" y1="76.2239" x2="202.049" y2="71.4131" gradientUnits="userSpaceOnUse">
<stop stop-color="white" stop-opacity="0"/>
<stop offset="0.99" stop-color="#DC841E"/>
</linearGradient>
<linearGradient id="paint4_linear" x1="81.5661" y1="111.557" x2="66.6718" y2="127.886" gradientUnits="userSpaceOnUse">
<stop stop-color="#78B46A"/>
<stop offset="0.03" stop-color="#7F3500"/>
<stop offset="1" stop-color="white"/>
</linearGradient>
</defs>
</svg>
